<?xml version="1.0" standalone="no"?>
<!DOCTYPE svg PUBLIC "-//W3C//DTD SVG 20010904//EN"
 "http://www.w3.org/TR/2001/REC-SVG-20010904/DTD/svg10.dtd">
<svg version="1.0" xmlns="http://www.w3.org/2000/svg"
 width="500.000000pt" height="169.000000pt" viewBox="0 0 500.000000 169.000000"
 preserveAspectRatio="xMidYMid meet">

<g xmlns="http://www.w3.org/2000/svg" transform="translate(0.000000,169.000000) scale(0.100000,-0.100000)" fill="#000000" stroke="none">
<path d="M670 1605 c-36 -8 -110 -37 -166 -64 -316 -156 -488 -507 -418 -849 60 -295 290 -534 580 -603 127 -30 305 -24 419 15 257 87 447 295 515 560 25 98 27 248 4 349 -18 81 -76 212 -125 283 -84 122 -234 234 -387 287 -78 28 -101 31 -222 34 -91 2 -156 -2 -200 -12z m333 -61 c204 -45 389 -190 481 -378 194 -396 -1 -863 -419 -1003 -71 -24 -96 -27 -215 -28 -114 0 -147 4 -210 23 -241 75 -422 265 -487 512 -22 87 -22 263 0 350 84 320 360 538 685 539 51 1 125 -6 165 -15z" style="&#10;    fill: #F71E10;;&#10;"/>
<path d="M738 1520 c-223 -40 -408 -181 -503 -381 -49 -105 -65 -177 -65 -294 0 -116 16 -190 64 -290 84 -177 218 -296 408 -360 73 -25 97 -29 203 -28 102 0 132 4 200 26 151 50 279 145 363 271 94 141 133 295 113 453 -20 167 -80 291 -196 408 -125 124 -276 192 -449 200 -50 2 -112 0 -138 -5z m308 -64 c301 -96 486 -406 431 -721 -43 -241 -213 -434 -447 -507 -110 -34 -275 -32 -380 4 -113 40 -167 74 -256 162 -130 129 -184 263 -184 451 0 188 54 322 184 451 104 103 185 149 321 180 89 20 231 12 331 -20z" style="&#10;    fill: #F71E10;;&#10;"/>
<path d="M1148 1230 c-131 -22 -315 -108 -424 -197 -149 -124 -236 -282 -264 -482 -9 -63 -8 -77 5 -90 24 -24 40 3 53 90 22 152 77 246 156 267 23 7 78 9 137 5 130 -8 168 6 261 98 39 38 68 74 66 81 -3 8 -28 15 -63 18 l-58 5 59 20 c41 14 73 33 105 66 50 49 72 105 48 120 -16 10 -16 10 -81 -1z m22 -58 c0 -11 -39 -46 -67 -61 -12 -6 -59 -25 -104 -41 -94 -35 -139 -64 -139 -90 0 -24 18 -30 71 -19 24 4 62 8 84 8 l40 0 -38 -34 c-67 -59 -93 -66 -224 -63 -65 2 -129 -1 -143 -6 -21 -7 -18 -2 18 39 96 109 228 192 392 246 91 30 110 34 110 21z" style="&#10;    fill: #F71E10;;&#10;"/>
<path d="M2685 1226 c-88 -40 -105 -120 -46 -216 31 -51 32 -55 15 -65 -123 -68 -130 -226 -14 -285 55 -28 109 -26 155 6 40 27 40 27 66 -19 8 -14 14 -15 29 -7 19 10 19 11 -3 48 -22 33 -23 46 -19 125 l5 87 38 0 c35 0 39 3 39 25 0 25 -1 26 -62 23 l-63 -3 -3 -74 -3 -74 -84 138 c-95 156 -103 188 -59 231 26 27 50 28 125 9 19 -5 28 -2 32 9 13 34 -97 65 -148 42z m71 -407 c58 -92 57 -100 -4 -126 -96 -40 -186 63 -137 157 15 29 61 62 79 56 5 -1 33 -40 62 -87z" style="&#10;    fill: white;&#10;"/>
<path d="M4560 1215 c0 -21 5 -25 30 -25 l30 0 0 -250 0 -250 -30 0 c-23 0 -30 -4 -30 -20 0 -18 7 -20 80 -20 73 0 80 2 80 20 0 16 -7 20 -30 20 l-30 0 0 73 c0 80 12 107 60 132 39 20 73 19 93 -3 13 -15 17 -39 17 -110 l0 -92 -30 0 c-23 0 -30 -4 -30 -20 0 -18 7 -20 85 -20 78 0 85 2 85 20 0 16 -7 20 -30 20 l-30 0 0 99 c0 92 -2 102 -26 130 -22 27 -32 31 -73 31 -35 0 -58 -7 -85 -25 l-36 -24 0 169 0 170 -50 0 c-47 0 -50 -2 -50 -25z" style="&#10;    fill: white;&#10;"/>
<path d="M2142 1173 c-11 -27 -61 -146 -112 -265 -90 -213 -93 -218 -121 -218 -22 0 -29 -5 -29 -20 0 -18 7 -20 80 -20 73 0 80 2 80 20 0 15 -7 20 -26 20 -30 0 -31 -7 19 113 l32 77 104 -2 105 -3 37 -90 38 -90 -25 -3 c-16 -2 -24 -10 -24 -23 0 -17 8 -19 80 -19 73 0 80 2 80 20 0 16 -7 20 -34 20 -24 0 -35 5 -38 18 -10 36 -213 512 -219 512 -4 0 -16 -21 -27 -47z m67 -146 c18 -43 35 -85 38 -93 4 -11 -10 -14 -80 -14 l-85 0 42 99 c22 55 44 96 47 93 3 -4 21 -42 38 -85z" style="&#10;    fill: white;&#10;"/>
<path d="M3040 1176 c0 -21 5 -26 25 -26 l25 0 0 -230 0 -230 -25 0 c-18 0 -25 -5 -25 -20 0 -19 7 -20 120 -20 136 0 171 10 213 59 51 61 28 169 -44 204 -30 14 -31 15 -10 22 54 17 80 130 46 195 -26 51 -66 64 -202 68 l-123 4 0 -26z m254 -37 c35 -16 52 -70 37 -119 -16 -54 -46 -70 -131 -70 l-70 0 0 100 0 100 70 0 c38 0 80 -5 94 -11z m6 -257 c45 -22 66 -64 54 -110 -14 -55 -52 -76 -145 -81 l-79 -3 0 106 0 106 68 0 c44 0 79 -6 102 -18z" style="&#10;    fill: white;&#10;"/>
<path d="M3740 1045 l0 -95 -36 0 c-31 0 -35 -3 -32 -22 2 -18 11 -24 36 -26 l32 -3 0 -125 0 -124 55 0 c48 0 55 2 55 20 0 16 -7 20 -30 20 l-30 0 0 104 0 105 43 3 c35 2 43 7 45 26 3 20 -1 22 -42 22 l-46 0 0 95 c0 95 0 95 -25 95 -25 0 -25 0 -25 -95z" style="&#10;    fill: white;&#10;"/>
<path d="M3992 930 c-47 -29 -72 -76 -72 -135 0 -60 23 -99 77 -132 45 -27 95 -29 143 -5 41 20 48 49 10 44 -110 -14 -115 -14 -143 8 -15 12 -25 25 -22 30 3 4 55 27 115 50 61 24 110 47 110 52 0 23 -34 71 -63 88 -42 26 -112 26 -155 0z m137 -41 c18 -11 31 -22 29 -25 -3 -2 -48 -22 -101 -43 -65 -27 -97 -35 -97 -27 0 34 26 80 54 97 40 24 73 24 115 -2z" style="&#10;    fill: white;&#10;"/>
<path d="M4330 927 c-159 -106 -30 -346 145 -273 37 16 40 22 26 45 -6 10 -13 11 -29 2 -11 -6 -40 -11 -64 -11 -36 0 -50 6 -72 28 -69 73 -21 192 78 192 44 0 56 -10 56 -46 0 -30 3 -34 25 -34 23 0 25 4 25 45 0 39 -4 46 -30 60 -44 23 -120 19 -160 -8z" style="&#10;    fill: white;&#10;"/>
</g>
</svg>
